<?xml version="1.0" encoding="UTF-8" standalone="no"?>
<!-- Created with Inkscape (http://www.inkscape.org/) -->

<svg
   width="500"
   height="100"
   viewBox="0 0 132.29167 26.458334"
   version="1.1"
   id="svg5"
   inkscape:version="1.1.2 (0a00cf5339, 2022-02-04)"
   sodipodi:docname="logo.svg"
   xmlns:inkscape="http://www.inkscape.org/namespaces/inkscape"
   xmlns:sodipodi="http://sodipodi.sourceforge.net/DTD/sodipodi-0.dtd"
   xmlns="http://www.w3.org/2000/svg"
   xmlns:svg="http://www.w3.org/2000/svg">
  <sodipodi:namedview
     id="namedview7"
     pagecolor="#ffffff"
     bordercolor="#999999"
     borderopacity="1"
     inkscape:pageshadow="0"
     inkscape:pageopacity="0"
     inkscape:pagecheckerboard="0"
     inkscape:document-units="mm"
     showgrid="false"
     inkscape:zoom="1.6226949"
     inkscape:cx="160.22728"
     inkscape:cy="-32.353586"
     inkscape:window-width="1920"
     inkscape:window-height="1011"
     inkscape:window-x="0"
     inkscape:window-y="0"
     inkscape:window-maximized="1"
     inkscape:current-layer="layer1"
     width="500px"
     units="px"
     inkscape:snap-object-midpoints="false" />
  <defs
     id="defs2">
    <inkscape:perspective
       sodipodi:type="inkscape:persp3d"
       inkscape:vp_x="38.391908 : 10.965091 : 1"
       inkscape:vp_y="0 : 1205.7872 : 0"
       inkscape:vp_z="153.73188 : 10.965091 : 1"
       inkscape:persp3d-origin="96.061898 : 5.6479044 : 1"
       id="perspective2318" />
  </defs>
  <g
     inkscape:label="Camada 1"
     inkscape:groupmode="layer"
     id="layer1"
     style="display:inline">
    <path
       style="fill:#2c2ca0;stroke:#000000;stroke-width:0.264583px;stroke-linecap:butt;stroke-linejoin:miter;stroke-opacity:1"
       d="M 15.023978,6.1641248 C 14.475604,23.507937 59.004329,2.9935191 59.004329,2.9935191 c 0,0 -9.965026,11.0301099 -32.011519,1.661038 -22.0464921,-9.3690719 -3.67085,12.1110269 -3.67085,12.1110269 0,0 12.533315,14.241053 56.690018,7.556029 44.156702,-6.685024 16.365299,-20.1793146 16.365299,-20.1793146 0,0 -7.875772,-4.2717551 -18.284163,-2.3363609 C 67.684723,3.7413316 56.635681,14.888374 56.635681,14.888374 c 0,0 -3.531036,2.956593 -8.235415,5.007055 -4.704379,2.050463 -17.62683,0.329037 -20.906507,-6.082787 C 24.214083,7.4008167 34.29649,3.1542521 34.29649,3.1542521 c 0,0 14.635461,-6.9657869 21.009951,2.6305341 6.37449,9.5963208 64.631099,-5.6733275 67.796609,-0.6061525 3.16551,5.0671753 -41.169631,4.5110185 -41.169631,4.5110185 0,0 -8.41956,-1.4766668 -11.768698,-0.6161093"
       id="path1818" />
    <path
       sodipodi:type="spiral"
       style="fill:#66ff00;fill-rule:evenodd;stroke:#000000"
       id="path1843"
       sodipodi:cx="260.71024"
       sodipodi:cy="51.539906"
       sodipodi:expansion="1"
       sodipodi:revolution="3"
       sodipodi:radius="56.298168"
       sodipodi:argument="-18.181736"
       sodipodi:t0="0"
       d="m 260.71024,51.539906 c 2.21631,1.74803 -1.26286,3.849957 -2.90535,3.683652 -4.45102,-0.450676 -5.80449,-5.923814 -4.46196,-9.494334 2.40147,-6.386823 10.4006,-8.046688 16.08333,-5.240277 8.33962,4.118521 10.34646,14.934919 6.01859,22.672322 -5.76837,10.31274 -19.48923,12.670228 -29.26132,6.796901 -12.29717,-7.390982 -15.0063,-24.052975 -7.57521,-35.850309 9.00005,-14.288153 28.62201,-17.349487 42.4393,-8.353526 16.2832,10.601429 19.69713,33.194335 9.13184,49.028297 -12.19805,18.280935 -37.76886,22.047743 -55.61729,9.91015 -20.28052,-13.791505 -24.40044,-42.344935 -10.68846,-62.206284 15.38276,-22.28143142 46.92213,-26.7546475 68.79527,-11.466775 24.28334,16.972437 29.10999,51.500188 12.24509,75.384272"
       transform="scale(0.26458333)" />
    <path
       sodipodi:type="spiral"
       style="fill:#a02c2c;fill-rule:evenodd;stroke:#000000"
       id="path2609"
       sodipodi:cx="125.31145"
       sodipodi:cy="46.046913"
       sodipodi:expansion="1"
       sodipodi:revolution="3"
       sodipodi:radius="37.471218"
       sodipodi:argument="-18.125355"
       sodipodi:t0="0"
       d="m 125.31145,46.046913 c 1.40723,1.24474 -0.98361,2.511037 -2.06884,2.338919 -2.94092,-0.466429 -3.63507,-4.154244 -2.609,-6.476599 1.83539,-4.154148 7.21329,-4.957153 10.88436,-2.879076 5.38743,3.049661 6.31534,10.312724 3.14915,15.292116 -4.22003,6.636747 -13.42634,7.688739 -19.69987,3.419234 -7.8946,-5.372735 -9.06996,-16.546697 -3.68932,-24.107634 6.51668,-9.157307 19.67083,-10.455695 28.5154,-3.959392 10.42301,7.655669 11.84427,22.797319 4.22947,32.923152 -8.79159,11.690675 -25.92538,13.234747 -37.33091,4.49955 -12.95969,-9.925487 -14.626548,-29.054549 -4.76963,-41.738669 11.05797,-14.229667 32.18452,-16.0193065 46.14643,-5.039708 15.50036,12.189435 17.41278,35.315104 5.30978,50.554187"
       transform="scale(0.26458333)" />
  </g>
</svg>
